<svg xmlns="http://www.w3.org/2000/svg" xmlns:xlink="http://www.w3.org/1999/xlink" viewBox="0 0 1006.522 1395.299">
    <defs>
        <linearGradient id="Dégradé_sans_nom_7" x1="604.29" y1="1132.391" x2="728.848" y2="1348.133"
                        gradientTransform="translate(-14.146 -30.864)" gradientUnits="userSpaceOnUse">
            <stop offset="0" stop-color="#eaf2fa"/>
            <stop offset="1" stop-color="#c4dffa"/>
        </linearGradient>
        <linearGradient id="Dégradé_sans_nom_8" x1="481.872" y1="1281.445" x2="838.247" y2="1281.445"
                        gradientTransform="translate(-14.146 -30.864)" gradientUnits="userSpaceOnUse">
            <stop offset="0.613" stop-color="#eaf2fa"/>
            <stop offset="0.667" stop-color="#9dcbf7"/>
        </linearGradient>
        <linearGradient id="Dégradé_sans_nom_6" x1="419.32" y1="504.502" x2="944.224" y2="1413.663"
                        gradientTransform="translate(-14.146 -30.864)" gradientUnits="userSpaceOnUse">
            <stop offset="0.586" stop-color="#f5f9fc"/>
            <stop offset="0.613" stop-color="#75b4f0"/>
        </linearGradient>
        <linearGradient id="Dégradé_sans_nom_5" x1="660.008" y1="1355.518" x2="660.008" y2="509.719"
                        gradientUnits="userSpaceOnUse">
            <stop offset="0" stop-color="#f5f9fc"/>
            <stop offset="1" stop-color="#c4dffa"/>
        </linearGradient>
    </defs>
    <g style="isolation:isolate">
        <g id="Calque_1" data-name="Calque 1">
            <g id="all">
                <path d="M1019.09,1444.62,583.38,1193.07a89.489,89.489,0,0,0-89.5,0L58.17,1444.62c-28.64,16.53-28.41,57.94.4,74.16l48.54,27.33,54.11,30.46,62.09,34.96,53.78,30.28,157.8,88.84-57.91,34.3c-7.08,4.19-7.04,10.99.08,15.11l195.85,113.07c7.12,4.11,18.79,4.11,25.91,0l195.84-113.07c7.13-4.12,7.13-10.85,0-14.97l-105.39-60.85,329.42-185.46C1047.5,1502.56,1047.72,1461.15,1019.09,1444.62Z"
                      transform="translate(-36.826 -500.913)" style="fill:#c4dffa;opacity:0.37"/>
                <path d="M496.794,1115.484,39.743,1321.655v41.594a49.6,49.6,0,0,0,25.078,43.119l432.816,246.224a89.494,89.494,0,0,0,87.814,0L1017.005,1409.4a49.613,49.613,0,0,0,25.253-43.222v-35.612L586.294,1115.484A89.5,89.5,0,0,0,496.794,1115.484Z"
                      transform="translate(-36.826 -500.913)" style="fill:#c4dffa"/>
                <path d="M496.794,1032.7,61.085,1284.258c-28.635,16.532-28.412,57.941.4,74.162l436.15,245.553a89.5,89.5,0,0,0,87.814,0L1021.6,1358.42c28.811-16.221,29.037-57.63.4-74.162L586.294,1032.7A89.5,89.5,0,0,0,496.794,1032.7Z"
                      transform="translate(-36.826 -500.913)" style="fill:#fff"/>
                <path d="M570.163,1509.145c7.081-4.193,18.706-4.258,25.833-.143l198.668,114.7c7.127,4.115,7.127,10.848,0,14.963l-195.841,113.07c-7.127,4.114-18.79,4.114-25.917,0l-195.841-113.07c-7.128-4.115-7.165-10.913-.084-15.106Z"
                      transform="translate(-36.826 -500.913)" style="fill:#fff"/>
                <path d="M794.664,1631.185,598.823,1744.254c-7.127,4.115-18.79,4.115-25.917,0L377.065,1631.185a11.845,11.845,0,0,1-4.182-3.832c-2.428,3.824-1.054,8.29,4.182,11.313l195.841,113.07c7.127,4.114,18.79,4.114,25.917,0l195.841-113.07c5.234-3.021,6.588-7.45,4.135-11.222A11.931,11.931,0,0,1,794.664,1631.185Z"
                      transform="translate(-36.826 -500.913)" style="fill:#c4dffa"/>
            </g>
            <path d="M824.093,1202.359l-.059-.008c-.065-2.682-1.826-5.355-5.337-7.374l-156.163-90.159c-6.25-3.6-16.079-4.132-23.377-1.266l-163.411,64.285c-4.516,1.776-7.45,4.633-7.952,7.776a5.169,5.169,0,0,0,.041.946l-.109-.016v16.985l.1.008c-.117,2.89,1.719,5.681,5.288,7.751l208.231,120.224a27.518,27.518,0,0,0,14.73,3.058c5.456-.285,10.391-1.969,13.466-4.591l111.368-94.325a7.758,7.758,0,0,0,3.116-6.141l.075.008Z"
                  transform="translate(-36.826 -500.913)" style="fill:url(#Dégradé_sans_nom_7)"/>
            <path d="M818.7,1194.977l-156.163-90.159c-6.25-3.6-16.079-4.132-23.377-1.266l-100.995,39.734,213.921,123.5,68.827-58.312C825.878,1204.278,824.956,1198.588,818.7,1194.977Z"
                  transform="translate(-36.826 -500.913)" style="mix-blend-mode:overlay;opacity:0.4"/>
            <path d="M824.034,1202.351a7.8,7.8,0,0,1-3.124,6.124l-111.36,94.351c-3.075,2.614-8.01,4.289-13.474,4.583a27.318,27.318,0,0,1-14.738-3.067L473.123,1184.126c-3.494-2.028-5.32-4.742-5.288-7.567l-.109-.016v16.985l.1.008c-.117,2.89,1.719,5.681,5.288,7.751l208.231,120.224a27.518,27.518,0,0,0,14.73,3.058c5.456-.285,10.391-1.969,13.466-4.591l111.368-94.325a7.758,7.758,0,0,0,3.116-6.141l.075.008-.008-17.161Z"
                  transform="translate(-36.826 -500.913)" style="fill:url(#Dégradé_sans_nom_8)"/>
            <path d="M824.034,1202.351a7.8,7.8,0,0,1-3.124,6.124l-68.827,58.312-.008,17.161,68.835-58.3a7.758,7.758,0,0,0,3.116-6.141l.075.008-.008-17.161Z"
                  transform="translate(-36.826 -500.913)" style="mix-blend-mode:overlay;opacity:0.4"/>
            <path d="M355.806,502.152,337.3,512.837c-.033.016-.051.033-.075.033l-.01.008h0c-3.335,1.953-5.4,6.092-5.4,11.982l.008,440.4c-.008,11.831,8.3,26.235,18.569,32.142l615.9,355.579c5.07,2.933,9.662,3.234,13.031,1.366l.008.009.1-.051v-.016l18.526-10.693h.016c3.36-1.935,5.479-6.083,5.479-12.023l.01-440.41c-.026-11.823-8.321-26.218-18.593-32.135L368.97,503.443c-5.052-2.907-9.586-3.217-12.937-1.4l-.016-.025-.16.109C355.841,502.119,355.831,502.136,355.806,502.152Z"
                  transform="translate(-36.826 -500.913)" style="fill:url(#Dégradé_sans_nom_6)"/>
            <path d="M355.806,502.152l-3.494,2.02.008.017c3.353-1.818,7.893-1.508,12.929,1.4l615.9,355.578c10.265,5.924,18.567,20.32,18.585,32.143l-.018,440.4c.018,5.924-2.093,10.064-5.438,12l3.672-2.112h.016c3.36-1.935,5.479-6.083,5.479-12.023l.01-440.41c-.026-11.823-8.321-26.218-18.593-32.135L368.97,503.443c-5.052-2.907-9.586-3.217-12.937-1.4l-.016-.025-.16.109C355.841,502.119,355.831,502.136,355.806,502.152Z"
                  transform="translate(-36.826 -500.913)" style="mix-blend-mode:overlay;opacity:0.30000000000000004"/>
            <path d="M969.614,867.837,353.72,512.241c-5.052-2.9-9.586-3.209-12.937-1.391l-.018-.033-.166.109c-.01,0-.018.017-.042.025l-3.169,1.831c-.091.05-.188.1-.28.163l-.046.025v0c-3.247,1.982-5.254,6.08-5.254,11.886l.008,440.4c-.008,11.831,8.3,26.235,18.569,32.142l615.9,355.579c4.99,2.882,9.507,3.218,12.842,1.458-.034.026-.059.059-.1.084l.313-.185c.058-.033.113-.066.167-.1l3.19-1.835.016-.008c3.36-1.927,5.481-6.083,5.481-12.025l.008-440.4C988.183,888.139,979.879,873.753,969.614,867.837Z"
                  transform="translate(-36.826 -500.913)" style="fill:url(#Dégradé_sans_nom_5)"/>
            <path d="M340.557,510.951l-3.5,2.019.008.025c3.353-1.818,7.895-1.516,12.937,1.4l615.9,355.57c10.265,5.933,18.569,20.328,18.585,32.151l-.016,440.4c.008,5.915-2.1,10.063-5.438,12.007l3.67-2.12.016-.008c3.36-1.927,5.481-6.083,5.481-12.025l.008-440.4c-.026-11.832-8.33-26.218-18.595-32.134L353.72,512.241c-5.052-2.9-9.586-3.209-12.937-1.391l-.018-.033-.166.109C340.589,510.926,340.581,510.943,340.557,510.951Z"
                  transform="translate(-36.826 -500.913)" style="mix-blend-mode:overlay;opacity:0.5"/>
            <ellipse cx="396.526" cy="633.997" rx="26.74" ry="45.769"
                     transform="translate(-243.408 -309.008) rotate(-21.734)" style="fill:#fff;fill-opacity:0.54"/>
            <path d="M385.666,590.333a24.386,24.386,0,0,1,12.246,3.735c16.59,9.744,29.418,35.52,28.652,57.572-.566,16.315-8.414,26.021-19.179,26.021a24.376,24.376,0,0,1-12.246-3.735c-16.589-9.744-29.417-35.519-28.652-57.571.567-16.316,8.415-26.022,19.179-26.022m0-1.5c-11.981,0-20.1,10.782-20.677,27.469-.781,22.509,12.4,48.938,29.391,58.916a25.787,25.787,0,0,0,13,3.941c11.982,0,20.1-10.782,20.677-27.468.782-22.509-12.4-48.939-29.391-58.916a25.777,25.777,0,0,0-13-3.942Z"
                  transform="translate(-36.826 -500.913)" style="fill:#fff"/>
            <path d="M474.43,788.461v81.224a.641.641,0,0,0,.307.547l68.356,39.141a.559.559,0,0,0,.322.1.65.65,0,0,0,.315-.083l.24-.225v-.007l2.712-1.248.24-.233a.687.687,0,0,0,.082-.322V826.488a.636.636,0,0,0-.315-.555l-68.16-39.852a.659.659,0,0,0-.637,0,.594.594,0,0,0-.247.277l-2.5,1.474a.237.237,0,0,0-.075-.008.593.593,0,0,0-.315.09A.624.624,0,0,0,474.43,788.461Zm.637,0,1.919,1.109.629.36,65.8,38.031v80.873l-68.348-39.149Z"
                  transform="translate(-36.826 -500.913)" style="fill:#fff"/>
            <path d="M560.15,837.645v81.142a.644.644,0,0,0,.307.548l68.356,39.222a.563.563,0,0,0,.322.1.666.666,0,0,0,.315-.082l.24-.225v-.008l2.711-1.248.24-.232a.683.683,0,0,0,.083-.322V875.671a.634.634,0,0,0-.315-.554l-68.16-39.852a.61.61,0,0,0-.322-.083.6.6,0,0,0-.315.083.591.591,0,0,0-.248.277l-2.5,1.473a.276.276,0,0,0-.075-.007.588.588,0,0,0-.315.09A.624.624,0,0,0,560.15,837.645Zm.637,0,1.918,1.109.63.36,65.8,38.03v80.873l-68.348-39.23Z"
                  transform="translate(-36.826 -500.913)" style="fill:#fff"/>
            <path d="M568.609,854.97v43.936a.465.465,0,0,0,.223.4l49.641,28.484a.407.407,0,0,0,.234.071.476.476,0,0,0,.228-.06l.175-.163v-.006l1.969-.906.174-.169a.5.5,0,0,0,.06-.234V882.585a.461.461,0,0,0-.229-.4l-49.5-28.941a.449.449,0,0,0-.234-.06.444.444,0,0,0-.229.06.425.425,0,0,0-.179.2l-1.818,1.069a.2.2,0,0,0-.055,0,.433.433,0,0,0-.228.065A.454.454,0,0,0,568.609,854.97Zm.462,0,1.394.8.457.262,47.785,27.618V927.4l-49.636-28.489Z"
                  transform="translate(-36.826 -500.913)" style="fill:#fff"/>
            <path d="M568.609,908.161v6.46a.468.468,0,0,0,.223.4L618.473,943.5a.407.407,0,0,0,.234.071.476.476,0,0,0,.228-.06l.175-.163v-.006l1.969-.906.174-.169a.5.5,0,0,0,.06-.234v-6.259a.461.461,0,0,0-.229-.4l-49.5-28.941a.449.449,0,0,0-.234-.06.444.444,0,0,0-.229.06.425.425,0,0,0-.179.2l-1.818,1.069a.2.2,0,0,0-.055,0,.433.433,0,0,0-.228.065A.454.454,0,0,0,568.609,908.161Zm.462,0,1.394.805.457.261,47.785,27.619v6.264l-49.636-28.489Z"
                  transform="translate(-36.826 -500.913)" style="fill:#fff"/>
            <path d="M719.125,932v81.142a.641.641,0,0,0,.307.547l68.356,39.223a.563.563,0,0,0,.322.1.66.66,0,0,0,.315-.082l.24-.225v-.008l2.712-1.248.239-.232a.683.683,0,0,0,.083-.322V970.023a.634.634,0,0,0-.315-.554l-68.16-39.852a.608.608,0,0,0-.322-.083.6.6,0,0,0-.315.083.589.589,0,0,0-.247.277l-2.5,1.473a.276.276,0,0,0-.075-.007.6.6,0,0,0-.315.089A.626.626,0,0,0,719.125,932Zm.637,0,1.919,1.109.629.36,65.8,38.03v80.873l-68.348-39.23Z"
                  transform="translate(-36.826 -500.913)" style="fill:#fff"/>
            <path d="M804.844,981.18v81.143a.64.64,0,0,0,.308.547l68.355,39.222a.56.56,0,0,0,.323.1.656.656,0,0,0,.315-.083l.239-.225v-.007l2.712-1.248.24-.233a.687.687,0,0,0,.082-.322v-80.865a.637.637,0,0,0-.314-.555L808.944,978.8a.61.61,0,0,0-.323-.082.6.6,0,0,0-.562.359l-2.5,1.474a.237.237,0,0,0-.075-.008.587.587,0,0,0-.314.09A.623.623,0,0,0,804.844,981.18Zm.637,0,1.919,1.109.63.36,65.8,38.031v80.873l-68.349-39.23Z"
                  transform="translate(-36.826 -500.913)" style="fill:#fff"/>
            <path d="M814.779,997.409v43.936a.465.465,0,0,0,.223.4l49.641,28.484a.41.41,0,0,0,.234.071.48.48,0,0,0,.229-.06l.174-.164v-.005l1.969-.906.174-.169a.488.488,0,0,0,.06-.234v-43.735a.463.463,0,0,0-.228-.4l-49.5-28.941a.447.447,0,0,0-.234-.06.438.438,0,0,0-.228.06.428.428,0,0,0-.18.2l-1.818,1.069a.2.2,0,0,0-.054,0,.434.434,0,0,0-.229.065A.454.454,0,0,0,814.779,997.409Zm.463,0,1.393.805.457.261,47.785,27.619v43.74l-49.635-28.489Z"
                  transform="translate(-36.826 -500.913)" style="fill:#fff"/>
            <path d="M814.779,1050.6v6.46a.465.465,0,0,0,.223.4l49.641,28.484a.41.41,0,0,0,.234.071.48.48,0,0,0,.229-.06l.174-.163v-.006l1.969-.906.174-.169a.488.488,0,0,0,.06-.234v-6.259a.463.463,0,0,0-.228-.4l-49.5-28.941a.447.447,0,0,0-.234-.06.438.438,0,0,0-.228.06.428.428,0,0,0-.18.2l-1.818,1.069a.2.2,0,0,0-.054-.005.434.434,0,0,0-.229.065A.454.454,0,0,0,814.779,1050.6Zm.463,0,1.393.805.457.261,47.785,27.619v6.264l-49.635-28.489Z"
                  transform="translate(-36.826 -500.913)" style="fill:#fff"/>
            <path d="M727.584,949.322v43.936a.465.465,0,0,0,.223.4l49.641,28.484a.407.407,0,0,0,.234.071.48.48,0,0,0,.229-.06l.174-.164v0l1.969-.906.174-.169a.5.5,0,0,0,.06-.234V976.937a.461.461,0,0,0-.229-.4l-49.5-28.941a.477.477,0,0,0-.463,0,.425.425,0,0,0-.179.2l-1.818,1.069a.2.2,0,0,0-.054,0,.434.434,0,0,0-.229.065A.454.454,0,0,0,727.584,949.322Zm.463,0,1.393.8.457.261,47.785,27.619v43.74l-49.635-28.489Z"
                  transform="translate(-36.826 -500.913)" style="fill:#fff"/>
            <path d="M727.584,1002.513v6.46a.465.465,0,0,0,.223.4l49.641,28.484a.407.407,0,0,0,.234.071.48.48,0,0,0,.229-.06l.174-.163v-.006l1.969-.906.174-.169a.5.5,0,0,0,.06-.234v-6.259a.461.461,0,0,0-.229-.4l-49.5-28.941a.477.477,0,0,0-.463,0,.425.425,0,0,0-.179.2l-1.818,1.069a.2.2,0,0,0-.054,0,.434.434,0,0,0-.229.065A.454.454,0,0,0,727.584,1002.513Zm.463,0,1.393.8.457.261,47.785,27.619v6.264l-49.635-28.489Z"
                  transform="translate(-36.826 -500.913)" style="fill:#fff"/>
            <path d="M482.889,805.24v43.936a.467.467,0,0,0,.223.4l49.641,28.483a.41.41,0,0,0,.234.071.48.48,0,0,0,.229-.06l.174-.163V877.9l1.969-.906.175-.169a.5.5,0,0,0,.059-.234V832.855a.464.464,0,0,0-.228-.4l-49.5-28.94a.435.435,0,0,0-.234-.06.44.44,0,0,0-.408.261l-1.818,1.07a.166.166,0,0,0-.054-.006.426.426,0,0,0-.229.066A.452.452,0,0,0,482.889,805.24Zm.463,0,1.393.8.458.262,47.784,27.618v43.74l-49.635-28.489Z"
                  transform="translate(-36.826 -500.913)" style="fill:#fff"/>
            <path d="M482.889,858.431v6.46a.467.467,0,0,0,.223.4l49.641,28.483a.41.41,0,0,0,.234.071.48.48,0,0,0,.229-.06l.174-.163v-.006l1.969-.906.175-.169a.5.5,0,0,0,.059-.234v-6.259a.463.463,0,0,0-.228-.4l-49.5-28.941a.443.443,0,0,0-.234-.059.437.437,0,0,0-.228.059.428.428,0,0,0-.18.2l-1.818,1.07a.166.166,0,0,0-.054-.006.426.426,0,0,0-.229.066A.452.452,0,0,0,482.889,858.431Zm.463,0,1.393.8.458.262,47.784,27.618v6.264l-49.635-28.489Z"
                  transform="translate(-36.826 -500.913)" style="fill:#fff"/>
            <path d="M375.8,722.368l-7.169-4.14a3.27,3.27,0,0,1-1.367-2.611v-9.559c0-1.006.612-1.469,1.367-1.033l7.169,4.139a3.274,3.274,0,0,1,1.367,2.612v9.558C377.17,722.341,376.558,722.8,375.8,722.368Z"
                  transform="translate(-36.826 -500.913)" style="fill:#fff;fill-rule:evenodd"/>
            <path d="M375.8,749.187l-7.169-4.139a3.273,3.273,0,0,1-1.367-2.611v-9.559c0-1.007.612-1.469,1.367-1.033l7.169,4.139a3.272,3.272,0,0,1,1.367,2.611v9.559C377.17,749.16,376.558,749.623,375.8,749.187Z"
                  transform="translate(-36.826 -500.913)" style="fill:#fff;fill-rule:evenodd"/>
            <path d="M375.8,776.007l-7.169-4.139a3.274,3.274,0,0,1-1.367-2.612V759.7c0-1.006.612-1.469,1.367-1.033L375.8,762.8a3.274,3.274,0,0,1,1.367,2.612v9.558C377.17,775.98,376.558,776.443,375.8,776.007Z"
                  transform="translate(-36.826 -500.913)" style="fill:#fff;fill-rule:evenodd"/>
            <path d="M375.8,802.826l-7.169-4.139a3.273,3.273,0,0,1-1.367-2.611v-9.559c0-1.006.612-1.469,1.367-1.033l7.169,4.139a3.273,3.273,0,0,1,1.367,2.611v9.559C377.17,802.8,376.558,803.262,375.8,802.826Z"
                  transform="translate(-36.826 -500.913)" style="fill:#fff;fill-rule:evenodd"/>
            <path d="M424.694,740.3l-31.955-18.449a2.61,2.61,0,0,1-1.09-2.083h0c0-.8.488-1.172,1.09-.824l31.955,18.449a2.613,2.613,0,0,1,1.09,2.083h0C425.784,740.277,425.3,740.646,424.694,740.3Z"
                  transform="translate(-36.826 -500.913)" style="fill:#fff;fill-rule:evenodd"/>
            <path d="M424.694,746.153,392.739,727.7a2.611,2.611,0,0,1-1.09-2.083h0c0-.8.488-1.172,1.09-.824l31.955,18.449a2.611,2.611,0,0,1,1.09,2.083h0C425.784,746.132,425.3,746.5,424.694,746.153Z"
                  transform="translate(-36.826 -500.913)" style="fill:#fff;fill-rule:evenodd"/>
            <path d="M407.225,741.922l-14.486-8.363a2.613,2.613,0,0,1-1.09-2.083h0c0-.8.488-1.172,1.09-.825l14.486,8.364a2.612,2.612,0,0,1,1.091,2.083h0C408.316,741.9,407.827,742.27,407.225,741.922Z"
                  transform="translate(-36.826 -500.913)" style="fill:#fff;fill-rule:evenodd"/>
            <path d="M424.694,767.118l-31.955-18.449a2.611,2.611,0,0,1-1.09-2.083h0c0-.8.488-1.172,1.09-.824l31.955,18.449a2.611,2.611,0,0,1,1.09,2.083h0C425.784,767.1,425.3,767.466,424.694,767.118Z"
                  transform="translate(-36.826 -500.913)" style="fill:#fff;fill-rule:evenodd"/>
            <path d="M424.694,772.973l-31.955-18.45a2.61,2.61,0,0,1-1.09-2.083h0c0-.8.488-1.171,1.09-.824l31.955,18.45a2.61,2.61,0,0,1,1.09,2.083h0C425.784,772.951,425.3,773.32,424.694,772.973Z"
                  transform="translate(-36.826 -500.913)" style="fill:#fff;fill-rule:evenodd"/>
            <path d="M407.225,768.742l-14.486-8.364a2.61,2.61,0,0,1-1.09-2.083h0c0-.8.488-1.172,1.09-.824l14.486,8.364a2.611,2.611,0,0,1,1.091,2.083h0C408.316,768.721,407.827,769.09,407.225,768.742Z"
                  transform="translate(-36.826 -500.913)" style="fill:#fff;fill-rule:evenodd"/>
            <path d="M424.694,793.938l-31.955-18.45a2.61,2.61,0,0,1-1.09-2.083h0c0-.8.488-1.171,1.09-.824l31.955,18.45a2.61,2.61,0,0,1,1.09,2.083h0C425.784,793.916,425.3,794.285,424.694,793.938Z"
                  transform="translate(-36.826 -500.913)" style="fill:#fff;fill-rule:evenodd"/>
            <path d="M424.694,799.792l-31.955-18.449a2.611,2.611,0,0,1-1.09-2.083h0c0-.8.488-1.172,1.09-.824l31.955,18.449a2.611,2.611,0,0,1,1.09,2.083h0C425.784,799.771,425.3,800.14,424.694,799.792Z"
                  transform="translate(-36.826 -500.913)" style="fill:#fff;fill-rule:evenodd"/>
            <path d="M407.225,795.562,392.739,787.2a2.611,2.611,0,0,1-1.09-2.083h0c0-.8.488-1.172,1.09-.824l14.486,8.364a2.61,2.61,0,0,1,1.091,2.082h0C408.316,795.54,407.827,795.909,407.225,795.562Z"
                  transform="translate(-36.826 -500.913)" style="fill:#fff;fill-rule:evenodd"/>
            <path d="M424.694,820.757l-31.955-18.449a2.611,2.611,0,0,1-1.09-2.083h0c0-.8.488-1.172,1.09-.824l31.955,18.449a2.611,2.611,0,0,1,1.09,2.083h0C425.784,820.736,425.3,821.105,424.694,820.757Z"
                  transform="translate(-36.826 -500.913)" style="fill:#fff;fill-rule:evenodd"/>
            <path d="M424.694,826.612l-31.955-18.449a2.613,2.613,0,0,1-1.09-2.083h0c0-.8.488-1.172,1.09-.824l31.955,18.449a2.61,2.61,0,0,1,1.09,2.083h0C425.784,826.591,425.3,826.96,424.694,826.612Z"
                  transform="translate(-36.826 -500.913)" style="fill:#fff;fill-rule:evenodd"/>
            <path d="M407.225,822.381l-14.486-8.364a2.61,2.61,0,0,1-1.09-2.083h0c0-.8.488-1.171,1.09-.824l14.486,8.364a2.612,2.612,0,0,1,1.091,2.083h0C408.316,822.36,407.827,822.729,407.225,822.381Z"
                  transform="translate(-36.826 -500.913)" style="fill:#fff;fill-rule:evenodd"/>
            <path d="M487.79,979.115l-9.763-5.637a4.457,4.457,0,0,1-1.861-3.556V956.9c0-1.37.833-2,1.861-1.407l9.763,5.637a4.459,4.459,0,0,1,1.862,3.556v13.018C489.652,979.078,488.818,979.708,487.79,979.115Z"
                  transform="translate(-36.826 -500.913)" style="fill:#fff;fill-rule:evenodd"/>
            <path d="M487.79,1015.639,478.027,1010a4.459,4.459,0,0,1-1.861-3.557V993.428c0-1.371.833-2,1.861-1.407l9.763,5.637a4.456,4.456,0,0,1,1.862,3.556v13.017C489.652,1015.6,488.818,1016.232,487.79,1015.639Z"
                  transform="translate(-36.826 -500.913)" style="fill:#fff;fill-rule:evenodd"/>
            <path d="M554.372,1003.534l-43.518-25.125a3.557,3.557,0,0,1-1.484-2.837h0c0-1.093.664-1.6,1.484-1.122l43.518,25.125a3.553,3.553,0,0,1,1.484,2.836h0C555.856,1003.5,555.192,1004.007,554.372,1003.534Z"
                  transform="translate(-36.826 -500.913)" style="fill:#fff;fill-rule:evenodd"/>
            <path d="M554.372,1011.507l-43.518-25.125a3.554,3.554,0,0,1-1.484-2.837h0c0-1.093.664-1.595,1.484-1.122l43.518,25.125a3.553,3.553,0,0,1,1.484,2.836h0C555.856,1011.478,555.192,1011.98,554.372,1011.507Z"
                  transform="translate(-36.826 -500.913)" style="fill:#fff;fill-rule:evenodd"/>
            <path d="M530.583,1005.745l-19.729-11.39a3.554,3.554,0,0,1-1.484-2.837h0c0-1.093.664-1.6,1.484-1.122l19.729,11.39a3.558,3.558,0,0,1,1.484,2.837h0C532.067,1005.716,531.4,1006.219,530.583,1005.745Z"
                  transform="translate(-36.826 -500.913)" style="fill:#fff;fill-rule:evenodd"/>
            <path d="M554.372,1040.057l-43.518-25.125a3.553,3.553,0,0,1-1.484-2.836h0c0-1.093.664-1.6,1.484-1.123l43.518,25.125a3.557,3.557,0,0,1,1.484,2.837h0C555.856,1040.028,555.192,1040.531,554.372,1040.057Z"
                  transform="translate(-36.826 -500.913)" style="fill:#fff;fill-rule:evenodd"/>
            <path d="M554.372,1048.03l-43.518-25.124a3.557,3.557,0,0,1-1.484-2.837h0c0-1.093.664-1.6,1.484-1.122l43.518,25.124a3.557,3.557,0,0,1,1.484,2.837h0C555.856,1048,555.192,1048.5,554.372,1048.03Z"
                  transform="translate(-36.826 -500.913)" style="fill:#fff;fill-rule:evenodd"/>
            <path d="M530.583,1042.269l-19.729-11.39a3.557,3.557,0,0,1-1.484-2.837h0c0-1.093.664-1.6,1.484-1.122l19.729,11.39a3.556,3.556,0,0,1,1.484,2.836h0C532.067,1042.24,531.4,1042.742,530.583,1042.269Z"
                  transform="translate(-36.826 -500.913)" style="fill:#fff;fill-rule:evenodd"/>
            <path d="M608.117,1040.967l-9.763-5.637a4.455,4.455,0,0,1-1.861-3.556v-13.018c0-1.37.833-2,1.861-1.407l9.763,5.637a4.458,4.458,0,0,1,1.861,3.556v13.018C609.978,1040.93,609.145,1041.56,608.117,1040.967Z"
                  transform="translate(-36.826 -500.913)" style="fill:#fff;fill-rule:evenodd"/>
            <path d="M608.117,1077.491l-9.763-5.637a4.459,4.459,0,0,1-1.861-3.557V1055.28c0-1.37.833-2,1.861-1.407l9.763,5.637a4.455,4.455,0,0,1,1.861,3.556v13.018C609.978,1077.454,609.145,1078.084,608.117,1077.491Z"
                  transform="translate(-36.826 -500.913)" style="fill:#fff;fill-rule:evenodd"/>
            <path d="M674.7,1065.386l-43.517-25.125a3.558,3.558,0,0,1-1.485-2.837h0c0-1.093.665-1.6,1.485-1.122l43.517,25.125a3.554,3.554,0,0,1,1.485,2.836h0C676.183,1065.356,675.518,1065.859,674.7,1065.386Z"
                  transform="translate(-36.826 -500.913)" style="fill:#fff;fill-rule:evenodd"/>
            <path d="M674.7,1073.359l-43.517-25.125a3.555,3.555,0,0,1-1.485-2.837h0c0-1.093.665-1.6,1.485-1.122L674.7,1069.4a3.554,3.554,0,0,1,1.485,2.836h0C676.183,1073.33,675.518,1073.832,674.7,1073.359Z"
                  transform="translate(-36.826 -500.913)" style="fill:#fff;fill-rule:evenodd"/>
            <path d="M650.909,1067.6l-19.728-11.39a3.555,3.555,0,0,1-1.485-2.837h0c0-1.093.665-1.595,1.485-1.122l19.728,11.39a3.558,3.558,0,0,1,1.485,2.837h0C652.394,1067.568,651.729,1068.071,650.909,1067.6Z"
                  transform="translate(-36.826 -500.913)" style="fill:#fff;fill-rule:evenodd"/>
            <path d="M674.7,1101.909l-43.517-25.124a3.558,3.558,0,0,1-1.485-2.837h0c0-1.093.665-1.6,1.485-1.123L674.7,1097.95a3.558,3.558,0,0,1,1.485,2.837h0C676.183,1101.88,675.518,1102.383,674.7,1101.909Z"
                  transform="translate(-36.826 -500.913)" style="fill:#fff;fill-rule:evenodd"/>
            <path d="M674.7,1109.882l-43.517-25.124a3.558,3.558,0,0,1-1.485-2.837h0c0-1.093.665-1.6,1.485-1.122l43.517,25.124a3.558,3.558,0,0,1,1.485,2.837h0C676.183,1109.853,675.518,1110.356,674.7,1109.882Z"
                  transform="translate(-36.826 -500.913)" style="fill:#fff;fill-rule:evenodd"/>
            <path d="M650.909,1104.121l-19.728-11.39a3.558,3.558,0,0,1-1.485-2.837h0c0-1.093.665-1.6,1.485-1.122l19.728,11.39a3.555,3.555,0,0,1,1.485,2.837h0C652.394,1104.092,651.729,1104.594,650.909,1104.121Z"
                  transform="translate(-36.826 -500.913)" style="fill:#fff;fill-rule:evenodd"/>
            <path d="M726.479,1108.729l-9.763-5.636a4.458,4.458,0,0,1-1.861-3.556v-13.018c0-1.371.833-2,1.861-1.407l9.763,5.637a4.455,4.455,0,0,1,1.861,3.556v13.017C728.34,1108.693,727.507,1109.323,726.479,1108.729Z"
                  transform="translate(-36.826 -500.913)" style="fill:#fff;fill-rule:evenodd"/>
            <path d="M726.479,1145.253l-9.763-5.637a4.455,4.455,0,0,1-1.861-3.556v-13.017c0-1.371.833-2,1.861-1.407l9.763,5.636a4.459,4.459,0,0,1,1.861,3.557v13.017C728.34,1145.217,727.507,1145.847,726.479,1145.253Z"
                  transform="translate(-36.826 -500.913)" style="fill:#fff;fill-rule:evenodd"/>
            <path d="M793.06,1133.148l-43.517-25.125a3.554,3.554,0,0,1-1.485-2.836h0c0-1.094.665-1.6,1.485-1.123l43.517,25.125a3.558,3.558,0,0,1,1.485,2.837h0C794.545,1133.119,793.88,1133.622,793.06,1133.148Z"
                  transform="translate(-36.826 -500.913)" style="fill:#fff;fill-rule:evenodd"/>
            <path d="M793.06,1141.121,749.543,1116a3.558,3.558,0,0,1-1.485-2.837h0c0-1.093.665-1.6,1.485-1.122l43.517,25.124a3.558,3.558,0,0,1,1.485,2.837h0C794.545,1141.092,793.88,1141.6,793.06,1141.121Z"
                  transform="translate(-36.826 -500.913)" style="fill:#fff;fill-rule:evenodd"/>
            <path d="M769.271,1135.36l-19.728-11.39a3.558,3.558,0,0,1-1.485-2.837h0c0-1.093.665-1.6,1.485-1.122l19.728,11.39a3.554,3.554,0,0,1,1.485,2.836h0C770.756,1135.331,770.091,1135.833,769.271,1135.36Z"
                  transform="translate(-36.826 -500.913)" style="fill:#fff;fill-rule:evenodd"/>
            <path d="M793.06,1169.672l-43.517-25.125a3.555,3.555,0,0,1-1.485-2.837h0c0-1.093.665-1.6,1.485-1.122l43.517,25.125a3.555,3.555,0,0,1,1.485,2.837h0C794.545,1169.643,793.88,1170.145,793.06,1169.672Z"
                  transform="translate(-36.826 -500.913)" style="fill:#fff;fill-rule:evenodd"/>
            <path d="M793.06,1177.645l-43.517-25.125a3.554,3.554,0,0,1-1.485-2.836h0c0-1.094.665-1.6,1.485-1.123l43.517,25.125a3.556,3.556,0,0,1,1.485,2.837h0C794.545,1177.616,793.88,1178.118,793.06,1177.645Z"
                  transform="translate(-36.826 -500.913)" style="fill:#fff;fill-rule:evenodd"/>
            <path d="M769.271,1171.884l-19.728-11.391a3.554,3.554,0,0,1-1.485-2.836h0c0-1.094.665-1.6,1.485-1.123l19.728,11.39a3.558,3.558,0,0,1,1.485,2.837h0C770.756,1171.854,770.091,1172.357,769.271,1171.884Z"
                  transform="translate(-36.826 -500.913)" style="fill:#fff;fill-rule:evenodd"/>
            <path d="M846.805,1170.582l-9.763-5.637a4.458,4.458,0,0,1-1.861-3.556v-13.018c0-1.371.833-2,1.861-1.407l9.763,5.637a4.456,4.456,0,0,1,1.862,3.556v13.017C848.667,1170.545,847.833,1171.175,846.805,1170.582Z"
                  transform="translate(-36.826 -500.913)" style="fill:#fff;fill-rule:evenodd"/>
            <path d="M846.805,1207.105l-9.763-5.637a4.455,4.455,0,0,1-1.861-3.556V1184.9c0-1.371.833-2,1.861-1.407l9.763,5.636a4.46,4.46,0,0,1,1.862,3.557V1205.7C848.667,1207.069,847.833,1207.7,846.805,1207.105Z"
                  transform="translate(-36.826 -500.913)" style="fill:#fff;fill-rule:evenodd"/>
            <path d="M913.386,1195l-43.517-25.125a3.553,3.553,0,0,1-1.484-2.836h0c0-1.093.664-1.6,1.484-1.123l43.517,25.125a3.558,3.558,0,0,1,1.485,2.837h0C914.871,1194.971,914.206,1195.474,913.386,1195Z"
                  transform="translate(-36.826 -500.913)" style="fill:#fff;fill-rule:evenodd"/>
            <path d="M913.386,1202.973l-43.517-25.124a3.557,3.557,0,0,1-1.484-2.837h0c0-1.093.664-1.6,1.484-1.122l43.517,25.124a3.558,3.558,0,0,1,1.485,2.837h0C914.871,1202.944,914.206,1203.447,913.386,1202.973Z"
                  transform="translate(-36.826 -500.913)" style="fill:#fff;fill-rule:evenodd"/>
            <path d="M889.6,1197.212l-19.728-11.39a3.557,3.557,0,0,1-1.484-2.837h0c0-1.093.664-1.6,1.484-1.122l19.728,11.39a3.554,3.554,0,0,1,1.485,2.836h0C891.082,1197.183,890.417,1197.685,889.6,1197.212Z"
                  transform="translate(-36.826 -500.913)" style="fill:#fff;fill-rule:evenodd"/>
            <path d="M913.386,1231.524,869.869,1206.4a3.553,3.553,0,0,1-1.484-2.836h0c0-1.094.664-1.6,1.484-1.123l43.517,25.125a3.555,3.555,0,0,1,1.485,2.837h0C914.871,1231.495,914.206,1232,913.386,1231.524Z"
                  transform="translate(-36.826 -500.913)" style="fill:#fff;fill-rule:evenodd"/>
            <path d="M913.386,1239.5l-43.517-25.125a3.553,3.553,0,0,1-1.484-2.836h0c0-1.094.664-1.6,1.484-1.123l43.517,25.125a3.558,3.558,0,0,1,1.485,2.837h0C914.871,1239.468,914.206,1239.97,913.386,1239.5Z"
                  transform="translate(-36.826 -500.913)" style="fill:#fff;fill-rule:evenodd"/>
            <path d="M889.6,1233.736l-19.728-11.391a3.553,3.553,0,0,1-1.484-2.836h0c0-1.093.664-1.6,1.484-1.123l19.728,11.39a3.558,3.558,0,0,1,1.485,2.837h0C891.082,1233.706,890.417,1234.209,889.6,1233.736Z"
                  transform="translate(-36.826 -500.913)" style="fill:#fff;fill-rule:evenodd"/>
            <path d="M570.268,721.725l-91.21-52.66a8.29,8.29,0,0,1-3.462-6.614V646.485c0-2.549,1.55-3.721,3.462-2.617l91.21,52.66a8.29,8.29,0,0,1,3.462,6.614v15.966C573.73,721.658,572.18,722.829,570.268,721.725Z"
                  transform="translate(-36.826 -500.913)" style="fill:#fff;fill-rule:evenodd"/>
            <path d="M521.325,729.4,477.336,704a4.169,4.169,0,0,1-1.74-3.325v-2.531c0-1.281.779-1.87,1.74-1.316l43.989,25.4a4.167,4.167,0,0,1,1.741,3.325v2.531C523.066,729.367,522.287,729.956,521.325,729.4Z"
                  transform="translate(-36.826 -500.913)" style="fill:#fff;fill-rule:evenodd"/>
            <path d="M659.32,821.808,476.848,718.264a3,3,0,0,1-1.252-2.393h0c0-.922.561-1.346,1.252-.946L659.32,818.469a3,3,0,0,1,1.252,2.392h0C660.572,821.783,660.011,822.207,659.32,821.808Z"
                  transform="translate(-36.826 -500.913)" style="fill:#fff;fill-rule:evenodd"/>
            <path d="M659.32,830.625,476.848,727.081a3,3,0,0,1-1.252-2.393h0c0-.922.561-1.345,1.252-.946L659.32,827.286a3,3,0,0,1,1.252,2.392h0C660.572,830.6,660.011,831.024,659.32,830.625Z"
                  transform="translate(-36.826 -500.913)" style="fill:#fff;fill-rule:evenodd"/>
            <path d="M616.516,814.729,476.848,735.9a3,3,0,0,1-1.252-2.392h0c0-.923.561-1.346,1.252-.947L616.516,811.39a3,3,0,0,1,1.252,2.392h0C617.768,814.7,617.207,815.128,616.516,814.729Z"
                  transform="translate(-36.826 -500.913)" style="fill:#fff;fill-rule:evenodd"/>
            <path d="M659.32,851.019,476.848,747.475a3,3,0,0,1-1.252-2.392h0c0-.922.561-1.346,1.252-.947L659.32,847.68a3,3,0,0,1,1.252,2.393h0C660.572,851,660.011,851.418,659.32,851.019Z"
                  transform="translate(-36.826 -500.913)" style="fill:#fff;fill-rule:evenodd"/>
            <path d="M659.32,859.836,476.848,756.292A3,3,0,0,1,475.6,753.9h0c0-.922.561-1.346,1.252-.947L659.32,856.5a3,3,0,0,1,1.252,2.393h0C660.572,859.812,660.011,860.236,659.32,859.836Z"
                  transform="translate(-36.826 -500.913)" style="fill:#fff;fill-rule:evenodd"/>
            <path d="M616.516,843.94,476.848,765.109a3,3,0,0,1-1.252-2.392h0c0-.922.561-1.346,1.252-.947L616.516,840.6a3,3,0,0,1,1.252,2.393h0C617.768,843.916,617.207,844.339,616.516,843.94Z"
                  transform="translate(-36.826 -500.913)" style="fill:#fff;fill-rule:evenodd"/>
            <path d="M764.173,862.989l-43.99-25.4a4.169,4.169,0,0,1-1.74-3.325v-2.531c0-1.281.779-1.87,1.74-1.316l43.99,25.4a4.167,4.167,0,0,1,1.74,3.325v2.53C765.913,862.955,765.134,863.544,764.173,862.989Z"
                  transform="translate(-36.826 -500.913)" style="fill:#fff;fill-rule:evenodd"/>
            <path d="M902.167,955.4,719.7,851.852a3,3,0,0,1-1.252-2.393h0c0-.922.561-1.345,1.252-.946L902.167,952.057a3,3,0,0,1,1.252,2.392h0C903.419,955.371,902.858,955.8,902.167,955.4Z"
                  transform="translate(-36.826 -500.913)" style="fill:#fff;fill-rule:evenodd"/>
            <path d="M902.167,964.213,719.7,860.669a3,3,0,0,1-1.252-2.393h0c0-.922.561-1.345,1.252-.946L902.167,960.874a3,3,0,0,1,1.252,2.392h0C903.419,964.188,902.858,964.612,902.167,964.213Z"
                  transform="translate(-36.826 -500.913)" style="fill:#fff;fill-rule:evenodd"/>
            <path d="M859.363,948.317,719.7,869.486a3,3,0,0,1-1.252-2.392h0c0-.922.561-1.346,1.252-.947l139.668,78.831a3,3,0,0,1,1.252,2.392h0C860.615,948.292,860.054,948.716,859.363,948.317Z"
                  transform="translate(-36.826 -500.913)" style="fill:#fff;fill-rule:evenodd"/>
            <path d="M902.167,984.607,719.7,881.063a3,3,0,0,1-1.252-2.392h0c0-.922.561-1.346,1.252-.947L902.167,981.268a3,3,0,0,1,1.252,2.393h0C903.419,984.583,902.858,985.007,902.167,984.607Z"
                  transform="translate(-36.826 -500.913)" style="fill:#fff;fill-rule:evenodd"/>
            <path d="M902.167,993.424,719.7,889.88a3,3,0,0,1-1.252-2.392h0c0-.922.561-1.346,1.252-.947L902.167,990.085a3,3,0,0,1,1.252,2.393h0C903.419,993.4,902.858,993.824,902.167,993.424Z"
                  transform="translate(-36.826 -500.913)" style="fill:#fff;fill-rule:evenodd"/>
            <path d="M859.363,977.528,719.7,898.7a3,3,0,0,1-1.252-2.392h0c0-.922.561-1.346,1.252-.946l139.668,78.83a3,3,0,0,1,1.252,2.393h0C860.615,977.5,860.054,977.928,859.363,977.528Z"
                  transform="translate(-36.826 -500.913)" style="fill:#fff;fill-rule:evenodd"/>
            <rect x="408.167" y="138.255" width="1.066" height="359.522" style="fill:#fff"/>
            <path d="M380.694,867.879a8.928,8.928,0,0,1-4.441-1.309c-5.352-3.09-9.543-11.015-9.543-18.042,0-4.067,1.457-7.24,4-8.708,2.23-1.285,4.96-1.128,7.686.446,5.352,3.09,9.544,11.016,9.544,18.043,0,4.067-1.458,7.24-4,8.708A6.425,6.425,0,0,1,380.694,867.879Zm-6.723-24.631a2.205,2.205,0,0,0-1.117.285c-1.163.671-1.857,2.538-1.857,5,0,5.451,3.389,12.013,7.4,14.328.953.549,2.315,1.073,3.4.447,1.162-.671,1.856-2.537,1.856-4.994,0-5.451-3.388-12.013-7.4-14.329A4.821,4.821,0,0,0,373.971,843.248Z"
                  transform="translate(-36.826 -500.913)" style="fill:#fff"/>
            <path d="M409.342,884.419a8.937,8.937,0,0,1-4.442-1.309c-5.351-3.09-9.542-11.015-9.542-18.042,0-4.067,1.457-7.24,4-8.708,2.23-1.284,4.959-1.128,7.686.446,5.352,3.09,9.544,11.016,9.544,18.043,0,4.067-1.458,7.24-4,8.708A6.425,6.425,0,0,1,409.342,884.419Zm-6.724-24.631a2.2,2.2,0,0,0-1.116.285c-1.163.671-1.857,2.538-1.857,5,0,5.451,3.389,12.013,7.4,14.328.953.551,2.316,1.074,3.4.447,1.162-.671,1.856-2.538,1.856-4.994,0-5.451-3.388-12.013-7.4-14.329A4.81,4.81,0,0,0,402.618,859.788Z"
                  transform="translate(-36.826 -500.913)" style="fill:#fff"/>
            <path d="M386.839,882.468l-19.028-10.986a3.173,3.173,0,0,1-1.326-2.532h0c0-.976.594-1.425,1.326-1l19.028,10.986a3.175,3.175,0,0,1,1.325,2.532h0C388.164,882.442,387.57,882.89,386.839,882.468Z"
                  transform="translate(-36.826 -500.913)" style="fill:#fff;fill-rule:evenodd"/>
            <path d="M380.147,884.91l-12.336-7.122a3.174,3.174,0,0,1-1.326-2.532h0c0-.976.594-1.425,1.326-1l12.336,7.122a3.174,3.174,0,0,1,1.325,2.532h0C381.472,884.884,380.879,885.333,380.147,884.91Z"
                  transform="translate(-36.826 -500.913)" style="fill:#fff;fill-rule:evenodd"/>
            <path d="M415.487,899.008l-19.028-10.986a3.172,3.172,0,0,1-1.325-2.532h0c0-.976.593-1.425,1.325-1l19.028,10.986a3.175,3.175,0,0,1,1.325,2.532h0C416.812,898.982,416.218,899.43,415.487,899.008Z"
                  transform="translate(-36.826 -500.913)" style="fill:#fff;fill-rule:evenodd"/>
            <path d="M408.8,901.45l-12.336-7.122a3.174,3.174,0,0,1-1.325-2.532h0c0-.976.593-1.425,1.325-1l12.336,7.122a3.174,3.174,0,0,1,1.325,2.532h0C410.12,901.424,409.527,901.873,408.8,901.45Z"
                  transform="translate(-36.826 -500.913)" style="fill:#fff;fill-rule:evenodd"/>
            <path d="M380.694,937.578a8.928,8.928,0,0,1-4.441-1.309c-5.352-3.09-9.543-11.015-9.543-18.043,0-4.066,1.457-7.239,4-8.707,2.23-1.285,4.96-1.128,7.686.446,5.352,3.09,9.544,11.015,9.544,18.043,0,4.067-1.458,7.24-4,8.708A6.425,6.425,0,0,1,380.694,937.578Zm-6.723-24.631a2.2,2.2,0,0,0-1.117.285c-1.163.671-1.857,2.538-1.857,4.994,0,5.452,3.389,12.014,7.4,14.329.953.549,2.315,1.073,3.4.447,1.162-.671,1.856-2.538,1.856-4.994,0-5.451-3.388-12.013-7.4-14.329A4.821,4.821,0,0,0,373.971,912.947Z"
                  transform="translate(-36.826 -500.913)" style="fill:#fff"/>
            <path d="M409.342,954.118a8.937,8.937,0,0,1-4.442-1.309c-5.351-3.09-9.542-11.015-9.542-18.042,0-4.067,1.457-7.24,4-8.708,2.23-1.284,4.959-1.128,7.686.446,5.352,3.09,9.544,11.016,9.544,18.043,0,4.067-1.458,7.24-4,8.708A6.425,6.425,0,0,1,409.342,954.118Zm-6.724-24.631a2.194,2.194,0,0,0-1.116.285c-1.163.671-1.857,2.538-1.857,5,0,5.451,3.389,12.013,7.4,14.328.953.551,2.316,1.074,3.4.447,1.162-.671,1.856-2.538,1.856-4.994,0-5.451-3.388-12.013-7.4-14.329A4.81,4.81,0,0,0,402.618,929.487Z"
                  transform="translate(-36.826 -500.913)" style="fill:#fff"/>
            <path d="M386.839,952.167l-19.028-10.986a3.174,3.174,0,0,1-1.326-2.532h0c0-.976.594-1.425,1.326-1l19.028,10.986a3.175,3.175,0,0,1,1.325,2.532h0C388.164,952.141,387.57,952.589,386.839,952.167Z"
                  transform="translate(-36.826 -500.913)" style="fill:#fff;fill-rule:evenodd"/>
            <path d="M380.147,954.609l-12.336-7.122a3.174,3.174,0,0,1-1.326-2.532h0c0-.976.594-1.425,1.326-1l12.336,7.122a3.172,3.172,0,0,1,1.325,2.532h0C381.472,954.583,380.879,955.032,380.147,954.609Z"
                  transform="translate(-36.826 -500.913)" style="fill:#fff;fill-rule:evenodd"/>
            <path d="M415.487,968.707l-19.028-10.986a3.174,3.174,0,0,1-1.325-2.532h0c0-.976.593-1.425,1.325-1l19.028,10.986a3.175,3.175,0,0,1,1.325,2.532h0C416.812,968.681,416.218,969.129,415.487,968.707Z"
                  transform="translate(-36.826 -500.913)" style="fill:#fff;fill-rule:evenodd"/>
            <path d="M408.8,971.149l-12.336-7.122a3.176,3.176,0,0,1-1.325-2.533h0c0-.975.593-1.424,1.325-1l12.336,7.122a3.172,3.172,0,0,1,1.325,2.532h0C410.12,971.123,409.527,971.572,408.8,971.149Z"
                  transform="translate(-36.826 -500.913)" style="fill:#fff;fill-rule:evenodd"/>
            <path d="M521.325,928.177l-43.989-25.4a4.167,4.167,0,0,1-1.74-3.325v-2.53c0-1.282.779-1.871,1.74-1.316l43.989,25.4a4.167,4.167,0,0,1,1.741,3.325v2.531C523.066,928.143,522.287,928.732,521.325,928.177Z"
                  transform="translate(-36.826 -500.913)" style="fill:#fff;fill-rule:evenodd"/>
            <path d="M659.32,1020.584,476.848,917.04a3,3,0,0,1-1.252-2.392h0c0-.922.561-1.346,1.252-.947L659.32,1017.245a3,3,0,0,1,1.252,2.393h0C660.572,1020.56,660.011,1020.983,659.32,1020.584Z"
                  transform="translate(-36.826 -500.913)" style="fill:#fff;fill-rule:evenodd"/>
            <path d="M659.32,1029.4,476.848,925.857a3,3,0,0,1-1.252-2.392h0c0-.922.561-1.346,1.252-.947L659.32,1026.062a3,3,0,0,1,1.252,2.393h0C660.572,1029.377,660.011,1029.8,659.32,1029.4Z"
                  transform="translate(-36.826 -500.913)" style="fill:#fff;fill-rule:evenodd"/>
            <polygon
                    points="836.743 257.429 836.744 348.622 828.98 352.892 459.626 130.887 453.493 47.069 461.257 42.799 836.743 257.429"
                    style="fill:#75b4f0"/>
            <polygon points="828.98 261.699 828.98 352.892 451.863 135.156 453.493 47.069 828.98 261.699"
                     style="fill:#9dcbf7"/>
            <path d="M517.739,612.385l.561,15.973-6.019-3.238-1.437-40.869,6.019,3.238.512,14.542q2.592-2.335,5.985-.51A14.927,14.927,0,0,1,529.2,607.9a22.715,22.715,0,0,1,2.637,10.064l.633,18.011-6.018-3.237-.569-16.194q-.24-6.83-3.893-8.8a2.575,2.575,0,0,0-3.088.1Q517.616,608.918,517.739,612.385Z"
                  transform="translate(-36.826 -500.913)" style="fill:#fff"/>
            <path d="M544.275,619.094l.466,13.274a7.027,7.027,0,0,0,.736,3.018,4.029,4.029,0,0,0,1.559,1.784,1.943,1.943,0,0,0,2.775-.56l2.451,6.991a5.007,5.007,0,0,1-5.794.342,13.925,13.925,0,0,1-5.357-5.637,18.946,18.946,0,0,1-2.416-8.812l-.482-13.659-2.527-1.361-.21-5.948,2.528,1.36-.311-8.868,6.06,3.261.311,8.867,5.218,2.807.209,5.949Z"
                  transform="translate(-36.826 -500.913)" style="fill:#fff"/>
            <path d="M561.93,628.593l.467,13.274a7.04,7.04,0,0,0,.735,3.017,4.031,4.031,0,0,0,1.56,1.784,1.945,1.945,0,0,0,2.775-.56l2.452,6.992a5.006,5.006,0,0,1-5.795.34,13.916,13.916,0,0,1-5.357-5.636,18.958,18.958,0,0,1-2.416-8.812l-.48-13.659-2.53-1.361-.209-5.949,2.528,1.362-.31-8.869,6.06,3.26.311,8.868,5.216,2.806.209,5.949Z"
                  transform="translate(-36.826 -500.913)" style="fill:#fff"/>
            <path d="M584.737,634.539q3.772,2.03,6.876,7.94a28.708,28.708,0,0,1,3.331,12.466q.231,6.553-2.564,9.374t-6.747.693q-3.952-2.125-6.514-7.774l.514,14.6-6.02-3.238-1.419-40.318,6.02,3.237.117,3.306Q580.964,632.51,584.737,634.539Zm-6.081,11.779A15.932,15.932,0,0,0,580.329,653a9.245,9.245,0,0,0,3.631,4.2,2.784,2.784,0,0,0,3.571-.321q1.485-1.445,1.358-5.025a16.462,16.462,0,0,0-1.736-6.823,9.574,9.574,0,0,0-3.736-4.389,2.564,2.564,0,0,0-3.508.466Q578.529,642.709,578.656,646.318Z"
                  transform="translate(-36.826 -500.913)" style="fill:#fff"/>
            <path d="M615.691,671.7q.153,4.377-2.1,5.758t-5.866-.562a23.1,23.1,0,0,1-5.058-3.881,32.8,32.8,0,0,1-4.818-6.024l2.467-3.752q3.495,5.394,7.309,7.444a2.24,2.24,0,0,0,1.822.359q.66-.265.624-1.313a4.769,4.769,0,0,0-1.011-2.434,22.108,22.108,0,0,0-2.788-3.122q-1.812-1.73-2.774-2.789a34.059,34.059,0,0,1-2.2-2.752,13.147,13.147,0,0,1-2.666-7.514q-.144-4.1,2.172-5.4t6.13.757q3.812,2.052,7.748,7.626l-2.053,4.3a17.809,17.809,0,0,0-5.691-5.653q-2.79-1.5-2.715.591a3.888,3.888,0,0,0,.947,2.294,34.39,34.39,0,0,0,2.983,3.117q2.079,1.983,2.956,2.914a31.545,31.545,0,0,1,2.118,2.572A12.859,12.859,0,0,1,615.691,671.7Z"
                  transform="translate(-36.826 -500.913)" style="fill:#fff"/>
            <path d="M621.017,682.668a8.883,8.883,0,0,1-1.145-3.992,3.521,3.521,0,0,1,.9-2.893,2.015,2.015,0,0,1,2.46-.055,6.606,6.606,0,0,1,2.557,2.753,8.879,8.879,0,0,1,1.144,3.994,3.5,3.5,0,0,1-.9,2.892,2.012,2.012,0,0,1-2.458.056A6.57,6.57,0,0,1,621.017,682.668Z"
                  transform="translate(-36.826 -500.913)" style="fill:#fff"/>
            <path d="M624.553,666.015a8.876,8.876,0,0,1-1.144-3.992,3.511,3.511,0,0,1,.9-2.892,2.011,2.011,0,0,1,2.459-.055,6.581,6.581,0,0,1,2.557,2.753,8.885,8.885,0,0,1,1.145,3.993,3.511,3.511,0,0,1-.9,2.892,2.015,2.015,0,0,1-2.459.057A6.6,6.6,0,0,1,624.553,666.015Z"
                  transform="translate(-36.826 -500.913)" style="fill:#fff"/>
            <path d="M644.668,654.587l5.7,3.066L635.29,699.094l-5.66-3.045Z" transform="translate(-36.826 -500.913)"
                  style="fill:#fff"/>
            <path d="M657.076,662.056l5.7,3.065L647.7,706.563l-5.66-3.045Z" transform="translate(-36.826 -500.913)"
                  style="fill:#fff"/>
            <path d="M504.055,1640.494c0,2.041,2.872,3.7,6.422,3.7l7.906,0-.2,15.874c0,.054,0,.109,0,.164l0,.366.07.037a3.459,3.459,0,0,0,1.8,2.137l15.8,9.11a9.676,9.676,0,0,0,5.587.97l.17.088v-.108a8.658,8.658,0,0,0,3.332-.945l9.722-5.578a8.582,8.582,0,0,1,6.1-.575q1.867.492,3.789.909c2.125.462,3.593,1.587,3.589,2.893l-.022,7.9c-.007,2.042,2.866,3.7,6.416,3.707l22.365.019c3.549,0,6.433-1.649,6.439-3.692l.021-7.978c0-1.257,1.332-2.385,3.369-2.838,1.3-.29,2.808-.638,4.2-.978a8.383,8.383,0,0,1,5.853.651l9.763,5.64a8.7,8.7,0,0,0,3.346.954v.069l.108-.057a9.73,9.73,0,0,0,5.637-.957l15.846-9.079a3.377,3.377,0,0,0,1.828-2.25h0a2.179,2.179,0,0,0-.012-.8l-.194-15.52,8.052.013c3.55.006,6.433-1.648,6.443-3.689l.054-18.793c.01-2.043-2.862-3.7-6.41-3.707l-13.869-.021c-2.183,0-6.032,2.368-6.623,1.565-.851-1.153-.409-2.484,1.136-3.366l9.81-5.614c2.517-1.44-12.083.259-14.586-1.189l-.1-1.1,4.873.006,9.81-5.613a3.11,3.11,0,0,0,1.877-2.726v-9.872H638.987l-3.037-1.757a10.068,10.068,0,0,0-9.088-.015l-3.1,1.772H603.454v-7.373c0-2.045-2.879-3.7-6.429-3.7H574.661c-3.551,0-6.428,1.655-6.428,3.7v7.373H548.251l-3.211-1.848a10.069,10.069,0,0,0-9.09,0l-3.219,1.852H518.248l-.068,10.1h.1a3.29,3.29,0,0,0,1.843,2.38l9.7,5.589,6.253.008v.083c-2.511,1.444-18.466.772-15.956,2.218l9.7,5.587c1.608.927,1.949,2.32,1,3.509-.567.718-4.33-1.671-6.6-1.672l-13.723-.007c-3.551,0-6.431,1.653-6.435,3.695Zm70.349-23.4c18.413-4.082,38.895,2.342,42.614,13.719,2.772,8.476-5.747,17.185-19.735,20.286-18.415,4.082-38.9-2.341-42.616-13.72C551.9,1628.9,560.415,1620.194,574.4,1617.1Z"
                  transform="translate(-36.826 -500.913)" style="fill:#9dcbf7"/>
            <path d="M530.979,1630.786c.855,1.151.414,2.482-1.126,3.369l-9.794,5.621c-2.514,1.442-2.517,3.783-.011,5.23l15.8,9.11a10.072,10.072,0,0,0,9.09.007l9.722-5.58a8.589,8.589,0,0,1,6.1-.574q1.867.49,3.789.907c2.125.464,3.593,1.589,3.589,2.894l-.022,7.9c-.006,2.042,2.866,3.7,6.416,3.7l22.365.019c3.549.006,6.433-1.648,6.439-3.691l.021-7.978c0-1.257,1.332-2.383,3.37-2.838,1.3-.29,2.807-.636,4.2-.977a8.377,8.377,0,0,1,5.853.651l9.763,5.641a10.085,10.085,0,0,0,9.09.009l15.847-9.081c2.515-1.442,2.522-3.783.019-5.23l-9.691-5.6c-1.6-.928-1.939-2.321-.992-3.51q.852-1.077,1.581-2.18c.806-1.222,2.761-2.065,5.031-2.063l13.729.021c3.55.005,6.433-1.647,6.443-3.692l.054-12.867c.011-2.043-2.862-3.7-6.41-3.708l-13.868-.02c-2.184,0-4.14-.767-4.929-1.94-.5-.749-1.1-1.615-1.7-2.417-.851-1.155-.409-2.483,1.136-3.369l9.81-5.613c2.518-1.438,2.53-3.782.028-5.228l-15.771-9.128a10.065,10.065,0,0,0-9.088-.013l-9.74,5.569a8.573,8.573,0,0,1-6.1.569q-1.959-.516-3.976-.954c-2.125-.461-3.591-1.583-3.591-2.887v-7.9c0-2.043-2.879-3.7-6.429-3.7H574.661c-3.551,0-6.428,1.656-6.428,3.7v7.976c0,1.257-1.325,2.385-3.361,2.841-1.3.291-2.8.64-4.2.982a8.38,8.38,0,0,1-5.854-.644l-9.776-5.63a10.072,10.072,0,0,0-9.09,0l-15.822,9.1c-2.509,1.444-2.511,3.785,0,5.232l9.7,5.586c1.608.926,1.949,2.321,1,3.511q-.851,1.076-1.575,2.183c-.8,1.223-2.755,2.068-5.027,2.066l-13.724-.007c-3.55,0-6.43,1.654-6.434,3.7l-.017,12.869c0,2.043,2.872,3.7,6.422,3.7l17.536.009C528.086,1626.57,529.552,1628.861,530.979,1630.786Zm66.3,2.544c-18.415,4.083-38.9-2.342-42.616-13.719-2.77-8.477,5.748-17.186,19.737-20.288,18.413-4.082,38.895,2.344,42.614,13.721C619.79,1621.522,611.271,1630.23,597.283,1633.33Z"
                  transform="translate(-36.826 -500.913)" style="fill:#f5f9fc"/>
            <path d="M288.034,804.182l20.631-12a8.106,8.106,0,0,1,1.036-.6l.011-.006h0a7.848,7.848,0,0,1,7.418.275l83.161,48.013a19.267,19.267,0,0,1,9.633,16.685v96.026a7.856,7.856,0,0,1-3.559,6.623h0l0,0a8.372,8.372,0,0,1-.8.46l-20.617,11.938-1.805-20.731-68.293-39.428a19.267,19.267,0,0,1-9.633-16.685V824.213c-5.138,2.518-9.338,4.472-9.338,4.472Z"
                  transform="translate(-36.826 -500.913)" style="fill:#9dcbf7"/>
            <path d="M379.916,851.682l-83.162-48.014a7.942,7.942,0,0,0-11.913,6.878v96.027a19.264,19.264,0,0,0,9.633,16.684l83.162,48.013a7.942,7.942,0,0,0,11.913-6.878V868.366A19.266,19.266,0,0,0,379.916,851.682Z"
                  transform="translate(-36.826 -500.913)" style="fill:#c4dffa"/>
            <path d="M347.1,866.443a6.741,6.741,0,0,0,1.828,5.69c1.483,1.358,3.053,1.078,3.551-.632l.862-3.161a6.4,6.4,0,0,0-1.827-5.691c-1.486-1.4-3.076-1.114-3.552.632Zm9.662,13.539c-1.507-.288-2.456,1.222-2.148,3.412.393,2.187,1.858,4.187,3.368,4.6l2.758.592c1.523.327,2.484-1.2,2.147-3.413s-1.845-4.27-3.368-4.6Zm-20-11.958c1.047,2.073,2.827,3.093,3.975,2.278s1.231-3.157.184-5.23l-1.9-3.753c-1.077-2-2.8-2.988-3.975-2.278l-.02.014c-1.137.821-1.211,3.156-.163,5.215Zm17.079,33.819c1.047,2.059,2.819,3.063,3.956,2.242,1.082-.891,1.161-3.16.184-5.23l-1.9-3.753h0c-1.046-2.073-2.826-3.093-3.974-2.278s-1.231,3.156-.184,5.229l1.9,3.754Zm-36.968-25.557c-1.04-.082-1.779.777-1.878,2.184a6.839,6.839,0,0,0,1.423,4.372l7.548,9.562-8.856,6.286c-1.148.815-1.23,3.156-.183,5.229s2.826,3.093,3.974,2.278l8.857-6.286,3.544,12.4a5.955,5.955,0,0,0,2.578,3.552,1.659,1.659,0,0,0,2.511-.932l12.558-30.443a4.643,4.643,0,0,0,.1-2.935c-.55-2.217-2.168-4.015-3.613-4.016Z"
                  transform="translate(-36.826 -500.913)" style="fill:#fff;fill-rule:evenodd"/>
            <path d="M273.576,604.355l20.442-11.894a8.017,8.017,0,0,1,1.026-.6l.012-.007h0a7.779,7.779,0,0,1,7.35.273l82.4,47.573a19.09,19.09,0,0,1,9.545,16.531v95.146a7.783,7.783,0,0,1-3.527,6.562h0l0,0a7.9,7.9,0,0,1-.788.456L369.6,770.231l-1.789-20.541-67.666-39.067a19.088,19.088,0,0,1-9.545-16.531V624.2c-5.091,2.5-9.253,4.431-9.253,4.431Z"
                  transform="translate(-36.826 -500.913)" style="fill:#4c95db"/>
            <path d="M364.616,651.419l-82.4-47.573a7.869,7.869,0,0,0-11.8,6.815v95.146a19.09,19.09,0,0,0,9.545,16.531l82.4,47.573a7.87,7.87,0,0,0,11.8-6.815V667.95A19.089,19.089,0,0,0,364.616,651.419Z"
                  transform="translate(-36.826 -500.913)" style="fill:#75b4f0"/>
            <path d="M321,663.4a8.285,8.285,0,0,1-3.407-6.747l.165-4.7c.091-2.6,1.764-3.784,3.738-2.653a8.071,8.071,0,0,1,3.407,6.748l-.165,4.7C324.606,663.293,322.958,664.463,321,663.4Z"
                  transform="translate(-36.826 -500.913)" style="fill:#fff"/>
            <path d="M300.914,648.759c1.459-1.033,3.718.262,5.049,2.893l2.37,4.694c1.389,2.591,1.377,5.617-.028,6.76s-3.668-.032-5.057-2.623c-.069-.127-.134-.257-.2-.388l-2.371-4.694C299.353,652.768,299.457,649.8,300.914,648.759Z"
                  transform="translate(-36.826 -500.913)" style="fill:#fff"/>
            <path d="M295.331,667.867l3.573,2.047a8.071,8.071,0,0,1,3.407,6.748c-.091,2.6-1.764,3.784-3.738,2.653L295,677.267a8.068,8.068,0,0,1-3.408-6.747C291.684,667.924,293.358,666.736,295.331,667.867Z"
                  transform="translate(-36.826 -500.913)" style="fill:#fff"/>
            <path d="M333.653,670.855l2.6-1.845c1.513-.928,3.769.488,5.039,3.163,1.2,2.523,1.1,5.295-.224,6.372l-2.6,1.845c-1.4,1.143-3.669-.031-5.058-2.622s-1.377-5.618.028-6.76A2.1,2.1,0,0,1,333.653,670.855Z"
                  transform="translate(-36.826 -500.913)" style="fill:#fff"/>
            <path d="M341.776,694.482l3.573,2.047a8.071,8.071,0,0,1,3.407,6.748c-.091,2.6-1.764,3.784-3.738,2.653l-3.572-2.047a8.071,8.071,0,0,1-3.408-6.748C338.129,694.539,339.8,693.351,341.776,694.482Z"
                  transform="translate(-36.826 -500.913)" style="fill:#fff"/>
            <path d="M326.329,719.2c-.184,5.191-3.532,7.563-7.479,5.3s-6.992-8.3-6.811-13.489l.165-4.7,14.29,8.189Z"
                  transform="translate(-36.826 -500.913)" style="fill:#fff"/>
            <path d="M320.835,668.1c7.893,4.523,14,16.607,13.63,26.991-.165,5.775-2.368,10.066-5.953,11.6a3.627,3.627,0,0,0-1.852,3.108l-14.291-8.19a10.935,10.935,0,0,0-1.565-5.066,33.111,33.111,0,0,1-4.92-17.83c.365-10.384,7.059-15.135,14.951-10.612Z"
                  transform="translate(-36.826 -500.913)" style="fill:#fff"/>
            <path d="M906.648,885.682l20.872-12.143a8.176,8.176,0,0,1,1.048-.61l.012-.007h0a7.943,7.943,0,0,1,7.5.278l84.129,48.573a19.488,19.488,0,0,1,9.746,16.879V1035.8a7.948,7.948,0,0,1-3.6,6.7h0l0,0a8.052,8.052,0,0,1-.805.466l-20.856,12.077-1.827-20.972-69.088-39.888a19.491,19.491,0,0,1-9.745-16.879V905.946c-5.2,2.548-9.447,4.524-9.447,4.524Z"
                  transform="translate(-36.826 -500.913)" style="fill:#144b82"/>
            <path d="M999.6,933.735l-84.13-48.573a8.035,8.035,0,0,0-12.052,6.958v97.145a19.489,19.489,0,0,0,9.745,16.879l84.13,48.572a8.035,8.035,0,0,0,12.052-6.958V950.614A19.491,19.491,0,0,0,999.6,933.735Z"
                  transform="translate(-36.826 -500.913)" style="fill:#0c3157"/>
            <path d="M972.765,1006.221c-2.476-1.419-4.391-5.211-4.276-8.468l.832-23.68c.114-3.258,2.214-4.749,4.691-3.33s4.39,5.21,4.276,8.468l-.832,23.68C977.342,1006.149,975.242,1007.64,972.765,1006.221Z"
                  transform="translate(-36.826 -500.913)" style="fill:#fff"/>
            <path d="M962,998.248l-.128-.073a9.505,9.505,0,0,1-5.44-1.4l-16.2-9.287c-2.865-1.61-5.247-5.683-5.671-9.7L931.8,952.142c-.486-4.659,1.79-7.6,5.083-6.566a5.818,5.818,0,0,1,1.141.5l10.633,6.094.553-15.759c.188-4.322,3-6.278,6.3-4.387a6.8,6.8,0,0,1,2.871,5.686l-.092,2.612a27.145,27.145,0,0,0,2.039,10.8l3.9,9.717a26.782,26.782,0,0,1,2.1,10.917l-.752,21.405C965.463,996.13,964.078,998.1,962,998.248Z"
                  transform="translate(-36.826 -500.913)" style="fill:#fff"/>
            <polygon points="396.169 887.915 497.174 829.601 396.169 771.286 295.164 829.601 396.169 887.915"
                     style="fill:#c4dffa;opacity:0.37"/>
            <polygon points="305.316 703.169 305.316 808.077 396.169 860.53 396.169 755.623 305.316 703.169"
                     style="fill:#eaf2fa"/>
            <polygon points="487.021 703.169 487.022 808.077 396.169 860.53 396.169 755.623 487.021 703.169"
                     style="fill:#c4dffa"/>
            <polygon points="396.169 755.623 487.022 703.169 396.169 650.716 305.316 703.169 396.169 755.623"
                     style="fill:#fff"/>
            <polygon points="420.962 948.221 483.377 912.186 420.962 876.152 358.547 912.186 420.962 948.221"
                     style="fill:#c4dffa;opacity:0.37"/>
            <polygon points="364.821 834.06 364.82 898.886 420.962 931.299 420.962 866.473 364.821 834.06"
                     style="fill:#eaf2fa"/>
            <polygon points="477.103 834.06 477.103 898.886 420.962 931.299 420.962 866.473 477.103 834.06"
                     style="fill:#c4dffa"/>
            <polygon points="420.962 866.473 477.103 834.06 420.962 801.647 364.821 834.06 420.962 866.473"
                     style="fill:#fff"/>
            <polygon points="274.886 939.76 337.301 903.725 274.886 867.69 212.472 903.725 274.886 939.76"
                     style="fill:#c4dffa;opacity:0.37"/>
            <polygon points="218.745 825.598 218.745 890.425 274.886 922.838 274.886 858.011 218.745 825.598"
                     style="fill:#eaf2fa"/>
            <polygon points="331.027 825.598 331.028 890.425 274.886 922.838 274.886 858.011 331.027 825.598"
                     style="fill:#c4dffa"/>
            <polygon points="274.886 858.011 331.028 825.598 274.886 793.186 218.745 825.598 274.886 858.011"
                     style="fill:#fff"/>
            <polygon points="274.886 850.723 316.682 826.593 274.886 802.462 233.091 826.593 274.886 850.723"
                     style="fill:#c4dffa;opacity:0.11"/>
            <polygon points="237.292 774.276 237.292 817.686 274.886 839.391 274.886 795.981 237.292 774.276"
                     style="fill:#eaf2fa"/>
            <polygon points="312.481 774.276 312.481 817.686 274.886 839.391 274.886 795.981 312.481 774.276"
                     style="fill:#c4dffa"/>
            <polygon points="274.886 795.981 312.481 774.276 274.886 752.571 237.292 774.276 274.886 795.981"
                     style="fill:#fff"/>
            <ellipse cx="395.465" cy="705.517" rx="40.779" ry="23.543" style="fill:#fff"/>
            <path d="M403.456,1192.163c15.859-9.155,41.81-9.155,57.67,0,7.407,4.278,11.353,9.826,11.84,15.458.556-6.426-3.389-12.959-11.84-17.839-15.86-9.156-41.811-9.156-57.67,0-8.451,4.88-12.4,11.413-11.841,17.839C392.1,1201.989,396.048,1196.441,403.456,1192.163Z"
                  transform="translate(-36.826 -500.913)" style="fill:#9dcbf7"/>
            <path d="M405.735,1216.523c-4.008-5.613-4.894-12.973-4.894-20.015v-12.134H464.5v10.893c0,7.874-1.742,15-6.5,21.056C454.152,1221.212,410.4,1223.053,405.735,1216.523Z"
                  transform="translate(-36.826 -500.913)" style="fill:#c4dffa"/>
            <path d="M405.735,1216.523c-4.008-5.613-4.894-12.973-4.894-20.015v-12.134H464.5v10.893a41.886,41.886,0,0,1-6.27,21.7C457.919,1217.473,410.4,1223.053,405.735,1216.523Z"
                  transform="translate(-36.826 -500.913)" style="fill:#c4dffa"/>
            <path d="M455.059,1171.439c-12.36-7.137-32.587-7.137-44.948,0s-12.36,18.814,0,25.951,32.588,7.136,44.948,0S467.42,1178.575,455.059,1171.439Z"
                  transform="translate(-36.826 -500.913)" style="fill:#26538e"/>
            <path d="M432.681,1064.937a58.178,58.178,0,0,0-31.818,106.9v13.16h0c.181,4.521,3.534,9.094,9.475,12.524,12.256,7.076,32.543,6.992,44.8-.085,5.942-3.43,8.976-7.918,9.158-12.439h.2v-13.16a58.178,58.178,0,0,0-31.818-106.9Z"
                  transform="translate(-36.826 -500.913)" style="fill:lime;opacity:0.8"/>
            <path d="M400.139,1129.484a38.058,38.058,0,0,1,38.057-38.058c19.455,0,17.951-16.222-6.85-16.222a44.906,44.906,0,0,0-44.906,44.906C386.44,1135.844,400.139,1142.817,400.139,1129.484Z"
                  transform="translate(-36.826 -500.913)" style="fill:#fff"/>
            <path d="M455.137,1202.519c-12.256,7.076-32.543,7.16-44.8.084-5.941-3.43-9.294-8-9.475-12.524v4.36c.181,4.521,3.534,9.094,9.475,12.524,12.256,7.076,32.543,6.993,44.8-.084,5.942-3.43,8.976-7.919,9.158-12.44h.2v-4.36h-.2C464.113,1194.6,461.079,1199.088,455.137,1202.519Z"
                  transform="translate(-36.826 -500.913)" style="fill:#4c95db"/>
            <path d="M455.092,1214.663c-12.449,7.188-33.055,7.273-45.5.086a21.713,21.713,0,0,1-7.769-7.108,44.087,44.087,0,0,0,3.272,8.279,26.353,26.353,0,0,0,4.5,3.258c12.449,7.187,33.055,7.1,45.5-.086a25.632,25.632,0,0,0,3.723-2.6,43.919,43.919,0,0,0,3.947-9.047A20.17,20.17,0,0,1,455.092,1214.663Z"
                  transform="translate(-36.826 -500.913)" style="fill:#4c95db"/>
            <path d="M432.475,1060.113h-.023a4.745,4.745,0,0,1-4.719-4.766l.176-36.358a4.743,4.743,0,0,1,4.742-4.719h.023a4.744,4.744,0,0,1,4.72,4.766l-.176,36.357A4.744,4.744,0,0,1,432.475,1060.113ZM471.332,1067l18.363-31.379a4.743,4.743,0,1,0-8.188-4.789l-18.363,31.379a4.743,4.743,0,0,0,8.188,4.789Zm23.707,27.139,31.614-17.96a4.744,4.744,0,0,0-4.688-8.248l-31.612,17.96a4.743,4.743,0,0,0,4.686,8.248Zm-118.083-2.156a4.745,4.745,0,0,0-1.635-6.5l-31.206-18.665a4.745,4.745,0,0,0-4.872,8.143l31.2,18.664a4.749,4.749,0,0,0,6.508-1.638Zm23.883-23.5a4.738,4.738,0,0,0,1.843-6.449l-17.658-31.784a4.743,4.743,0,0,0-8.291,4.608l17.659,31.784a4.738,4.738,0,0,0,6.447,1.841Z"
                  transform="translate(-36.826 -500.913)" style="fill:lime;opacity:0.8"/>
        </g>
                    <animateMotion dur="2s" repeatCount="indefinite" path="M0 0 L 0 15 L 0 0"></animateMotion>

    </g>
</svg>
